%TF.GenerationSoftware,KiCad,Pcbnew,(5.1.10)-1*%
%TF.CreationDate,2021-10-14T20:44:39-03:00*%
%TF.ProjectId,I2S_DAC,4932535f-4441-4432-9e6b-696361645f70,rev?*%
%TF.SameCoordinates,Original*%
%TF.FileFunction,Legend,Top*%
%TF.FilePolarity,Positive*%
%FSLAX46Y46*%
G04 Gerber Fmt 4.6, Leading zero omitted, Abs format (unit mm)*
G04 Created by KiCad (PCBNEW (5.1.10)-1) date 2021-10-14 20:44:39*
%MOMM*%
%LPD*%
G01*
G04 APERTURE LIST*
%ADD10C,0.120000*%
%ADD11C,0.150000*%
G04 APERTURE END LIST*
D10*
%TO.C,J2*%
X80755000Y-95680000D02*
X80755000Y-93020000D01*
X67995000Y-95680000D02*
X80755000Y-95680000D01*
X67995000Y-93020000D02*
X80755000Y-93020000D01*
X67995000Y-95680000D02*
X67995000Y-93020000D01*
X66725000Y-95680000D02*
X65395000Y-95680000D01*
X65395000Y-95680000D02*
X65395000Y-94350000D01*
%TO.C,J3*%
X82300000Y-123255000D02*
X82300000Y-120595000D01*
X61920000Y-123255000D02*
X82300000Y-123255000D01*
X61920000Y-120595000D02*
X82300000Y-120595000D01*
X61920000Y-123255000D02*
X61920000Y-120595000D01*
X60650000Y-123255000D02*
X59320000Y-123255000D01*
X59320000Y-123255000D02*
X59320000Y-121925000D01*
%TO.C,C1*%
X51065000Y-112688748D02*
X51065000Y-113211252D01*
X52535000Y-112688748D02*
X52535000Y-113211252D01*
%TO.C,C2*%
X55911252Y-109140000D02*
X55388748Y-109140000D01*
X55911252Y-110610000D02*
X55388748Y-110610000D01*
%TO.C,C3*%
X55388748Y-106640000D02*
X55911252Y-106640000D01*
X55388748Y-108110000D02*
X55911252Y-108110000D01*
%TO.C,C4*%
X55911252Y-104140000D02*
X55388748Y-104140000D01*
X55911252Y-105610000D02*
X55388748Y-105610000D01*
%TO.C,C5*%
X63386252Y-96085000D02*
X62863748Y-96085000D01*
X63386252Y-94615000D02*
X62863748Y-94615000D01*
%TO.C,C6*%
X63386252Y-96940000D02*
X62863748Y-96940000D01*
X63386252Y-98410000D02*
X62863748Y-98410000D01*
%TO.C,C7*%
X87490000Y-100236252D02*
X87490000Y-99713748D01*
X88960000Y-100236252D02*
X88960000Y-99713748D01*
%TO.C,C8*%
X87715000Y-105986252D02*
X87715000Y-105463748D01*
X89185000Y-105986252D02*
X89185000Y-105463748D01*
%TO.C,C9*%
X69635000Y-106011252D02*
X69635000Y-105488748D01*
X68165000Y-106011252D02*
X68165000Y-105488748D01*
%TO.C,C10*%
X73940000Y-106670563D02*
X75004437Y-107735000D01*
X73940000Y-104279437D02*
X75004437Y-103215000D01*
X73940000Y-104279437D02*
X73940000Y-104415000D01*
X73940000Y-106670563D02*
X73940000Y-106535000D01*
X75004437Y-107735000D02*
X78460000Y-107735000D01*
X75004437Y-103215000D02*
X78460000Y-103215000D01*
X78460000Y-103215000D02*
X78460000Y-104415000D01*
X78460000Y-107735000D02*
X78460000Y-106535000D01*
%TO.C,C11*%
X78460000Y-102910000D02*
X78460000Y-101710000D01*
X78460000Y-98390000D02*
X78460000Y-99590000D01*
X75004437Y-98390000D02*
X78460000Y-98390000D01*
X75004437Y-102910000D02*
X78460000Y-102910000D01*
X73940000Y-101845563D02*
X73940000Y-101710000D01*
X73940000Y-99454437D02*
X73940000Y-99590000D01*
X73940000Y-99454437D02*
X75004437Y-98390000D01*
X73940000Y-101845563D02*
X75004437Y-102910000D01*
%TO.C,C12*%
X70615000Y-106036252D02*
X70615000Y-105513748D01*
X72085000Y-106036252D02*
X72085000Y-105513748D01*
%TO.C,FB1*%
X63537122Y-100410000D02*
X62737878Y-100410000D01*
X63537122Y-99290000D02*
X62737878Y-99290000D01*
%TO.C,FB2*%
X63524622Y-101340000D02*
X62725378Y-101340000D01*
X63524622Y-102460000D02*
X62725378Y-102460000D01*
%TO.C,R1*%
X70365000Y-110435436D02*
X70365000Y-110889564D01*
X71835000Y-110435436D02*
X71835000Y-110889564D01*
%TO.C,R2*%
X60010000Y-114460436D02*
X60010000Y-114914564D01*
X58540000Y-114460436D02*
X58540000Y-114914564D01*
%TO.C,R4*%
X64560000Y-114447936D02*
X64560000Y-114902064D01*
X63090000Y-114447936D02*
X63090000Y-114902064D01*
%TO.C,R5*%
X74085000Y-110422936D02*
X74085000Y-110877064D01*
X72615000Y-110422936D02*
X72615000Y-110877064D01*
%TO.C,R6*%
X60865000Y-114460436D02*
X60865000Y-114914564D01*
X62335000Y-114460436D02*
X62335000Y-114914564D01*
%TO.C,R7*%
X82377064Y-105665000D02*
X81922936Y-105665000D01*
X82377064Y-107135000D02*
X81922936Y-107135000D01*
%TO.C,R8*%
X82389564Y-104735000D02*
X81935436Y-104735000D01*
X82389564Y-103265000D02*
X81935436Y-103265000D01*
%TO.C,R9*%
X82414564Y-99735000D02*
X81960436Y-99735000D01*
X82414564Y-98265000D02*
X81960436Y-98265000D01*
%TO.C,R10*%
X81860436Y-102285000D02*
X82314564Y-102285000D01*
X81860436Y-100815000D02*
X82314564Y-100815000D01*
%TO.C,U1*%
X54700000Y-114560000D02*
X56500000Y-114560000D01*
X56500000Y-111340000D02*
X54050000Y-111340000D01*
D11*
%TO.C,U2*%
X65575000Y-103450000D02*
X65575000Y-103550000D01*
X65600000Y-108975000D02*
X65600000Y-108950000D01*
X60950000Y-108975000D02*
X60950000Y-108950000D01*
X59875000Y-103450000D02*
X65575000Y-103450000D01*
X60950000Y-108975000D02*
X65600000Y-108975000D01*
D10*
%TO.C,J1*%
X90100000Y-110800000D02*
X90100000Y-108800000D01*
X92700000Y-110800000D02*
X92700000Y-108800000D01*
X83600000Y-110800000D02*
X90100000Y-110800000D01*
X79200000Y-110800000D02*
X80400000Y-110800000D01*
X79200000Y-113050000D02*
X79200000Y-110800000D01*
X79200000Y-117000000D02*
X79200000Y-116250000D01*
X88100000Y-117000000D02*
X79200000Y-117000000D01*
X93900000Y-117000000D02*
X90700000Y-117000000D01*
X93900000Y-116500000D02*
X93900000Y-117000000D01*
X96400000Y-116500000D02*
X93900000Y-116500000D01*
X96400000Y-111300000D02*
X96400000Y-116500000D01*
X93900000Y-111300000D02*
X96400000Y-111300000D01*
X93900000Y-110800000D02*
X93900000Y-111300000D01*
X92700000Y-110800000D02*
X93900000Y-110800000D01*
%TO.C,J2*%
D11*
X81891666Y-92827380D02*
X81891666Y-93541666D01*
X81844047Y-93684523D01*
X81748809Y-93779761D01*
X81605952Y-93827380D01*
X81510714Y-93827380D01*
X82320238Y-92922619D02*
X82367857Y-92875000D01*
X82463095Y-92827380D01*
X82701190Y-92827380D01*
X82796428Y-92875000D01*
X82844047Y-92922619D01*
X82891666Y-93017857D01*
X82891666Y-93113095D01*
X82844047Y-93255952D01*
X82272619Y-93827380D01*
X82891666Y-93827380D01*
%TO.C,J3*%
X57391666Y-121502380D02*
X57391666Y-122216666D01*
X57344047Y-122359523D01*
X57248809Y-122454761D01*
X57105952Y-122502380D01*
X57010714Y-122502380D01*
X57772619Y-121502380D02*
X58391666Y-121502380D01*
X58058333Y-121883333D01*
X58201190Y-121883333D01*
X58296428Y-121930952D01*
X58344047Y-121978571D01*
X58391666Y-122073809D01*
X58391666Y-122311904D01*
X58344047Y-122407142D01*
X58296428Y-122454761D01*
X58201190Y-122502380D01*
X57915476Y-122502380D01*
X57820238Y-122454761D01*
X57772619Y-122407142D01*
%TO.C,C1*%
X49533333Y-113482142D02*
X49485714Y-113529761D01*
X49342857Y-113577380D01*
X49247619Y-113577380D01*
X49104761Y-113529761D01*
X49009523Y-113434523D01*
X48961904Y-113339285D01*
X48914285Y-113148809D01*
X48914285Y-113005952D01*
X48961904Y-112815476D01*
X49009523Y-112720238D01*
X49104761Y-112625000D01*
X49247619Y-112577380D01*
X49342857Y-112577380D01*
X49485714Y-112625000D01*
X49533333Y-112672619D01*
X50485714Y-113577380D02*
X49914285Y-113577380D01*
X50200000Y-113577380D02*
X50200000Y-112577380D01*
X50104761Y-112720238D01*
X50009523Y-112815476D01*
X49914285Y-112863095D01*
%TO.C,C2*%
X52433333Y-110282142D02*
X52385714Y-110329761D01*
X52242857Y-110377380D01*
X52147619Y-110377380D01*
X52004761Y-110329761D01*
X51909523Y-110234523D01*
X51861904Y-110139285D01*
X51814285Y-109948809D01*
X51814285Y-109805952D01*
X51861904Y-109615476D01*
X51909523Y-109520238D01*
X52004761Y-109425000D01*
X52147619Y-109377380D01*
X52242857Y-109377380D01*
X52385714Y-109425000D01*
X52433333Y-109472619D01*
X52814285Y-109472619D02*
X52861904Y-109425000D01*
X52957142Y-109377380D01*
X53195238Y-109377380D01*
X53290476Y-109425000D01*
X53338095Y-109472619D01*
X53385714Y-109567857D01*
X53385714Y-109663095D01*
X53338095Y-109805952D01*
X52766666Y-110377380D01*
X53385714Y-110377380D01*
%TO.C,C3*%
X52433333Y-107857142D02*
X52385714Y-107904761D01*
X52242857Y-107952380D01*
X52147619Y-107952380D01*
X52004761Y-107904761D01*
X51909523Y-107809523D01*
X51861904Y-107714285D01*
X51814285Y-107523809D01*
X51814285Y-107380952D01*
X51861904Y-107190476D01*
X51909523Y-107095238D01*
X52004761Y-107000000D01*
X52147619Y-106952380D01*
X52242857Y-106952380D01*
X52385714Y-107000000D01*
X52433333Y-107047619D01*
X52766666Y-106952380D02*
X53385714Y-106952380D01*
X53052380Y-107333333D01*
X53195238Y-107333333D01*
X53290476Y-107380952D01*
X53338095Y-107428571D01*
X53385714Y-107523809D01*
X53385714Y-107761904D01*
X53338095Y-107857142D01*
X53290476Y-107904761D01*
X53195238Y-107952380D01*
X52909523Y-107952380D01*
X52814285Y-107904761D01*
X52766666Y-107857142D01*
%TO.C,C4*%
X52433333Y-105332142D02*
X52385714Y-105379761D01*
X52242857Y-105427380D01*
X52147619Y-105427380D01*
X52004761Y-105379761D01*
X51909523Y-105284523D01*
X51861904Y-105189285D01*
X51814285Y-104998809D01*
X51814285Y-104855952D01*
X51861904Y-104665476D01*
X51909523Y-104570238D01*
X52004761Y-104475000D01*
X52147619Y-104427380D01*
X52242857Y-104427380D01*
X52385714Y-104475000D01*
X52433333Y-104522619D01*
X53290476Y-104760714D02*
X53290476Y-105427380D01*
X53052380Y-104379761D02*
X52814285Y-105094047D01*
X53433333Y-105094047D01*
%TO.C,C5*%
X59958333Y-95707142D02*
X59910714Y-95754761D01*
X59767857Y-95802380D01*
X59672619Y-95802380D01*
X59529761Y-95754761D01*
X59434523Y-95659523D01*
X59386904Y-95564285D01*
X59339285Y-95373809D01*
X59339285Y-95230952D01*
X59386904Y-95040476D01*
X59434523Y-94945238D01*
X59529761Y-94850000D01*
X59672619Y-94802380D01*
X59767857Y-94802380D01*
X59910714Y-94850000D01*
X59958333Y-94897619D01*
X60863095Y-94802380D02*
X60386904Y-94802380D01*
X60339285Y-95278571D01*
X60386904Y-95230952D01*
X60482142Y-95183333D01*
X60720238Y-95183333D01*
X60815476Y-95230952D01*
X60863095Y-95278571D01*
X60910714Y-95373809D01*
X60910714Y-95611904D01*
X60863095Y-95707142D01*
X60815476Y-95754761D01*
X60720238Y-95802380D01*
X60482142Y-95802380D01*
X60386904Y-95754761D01*
X60339285Y-95707142D01*
%TO.C,C6*%
X60008333Y-97932142D02*
X59960714Y-97979761D01*
X59817857Y-98027380D01*
X59722619Y-98027380D01*
X59579761Y-97979761D01*
X59484523Y-97884523D01*
X59436904Y-97789285D01*
X59389285Y-97598809D01*
X59389285Y-97455952D01*
X59436904Y-97265476D01*
X59484523Y-97170238D01*
X59579761Y-97075000D01*
X59722619Y-97027380D01*
X59817857Y-97027380D01*
X59960714Y-97075000D01*
X60008333Y-97122619D01*
X60865476Y-97027380D02*
X60675000Y-97027380D01*
X60579761Y-97075000D01*
X60532142Y-97122619D01*
X60436904Y-97265476D01*
X60389285Y-97455952D01*
X60389285Y-97836904D01*
X60436904Y-97932142D01*
X60484523Y-97979761D01*
X60579761Y-98027380D01*
X60770238Y-98027380D01*
X60865476Y-97979761D01*
X60913095Y-97932142D01*
X60960714Y-97836904D01*
X60960714Y-97598809D01*
X60913095Y-97503571D01*
X60865476Y-97455952D01*
X60770238Y-97408333D01*
X60579761Y-97408333D01*
X60484523Y-97455952D01*
X60436904Y-97503571D01*
X60389285Y-97598809D01*
%TO.C,C7*%
X90183333Y-100182142D02*
X90135714Y-100229761D01*
X89992857Y-100277380D01*
X89897619Y-100277380D01*
X89754761Y-100229761D01*
X89659523Y-100134523D01*
X89611904Y-100039285D01*
X89564285Y-99848809D01*
X89564285Y-99705952D01*
X89611904Y-99515476D01*
X89659523Y-99420238D01*
X89754761Y-99325000D01*
X89897619Y-99277380D01*
X89992857Y-99277380D01*
X90135714Y-99325000D01*
X90183333Y-99372619D01*
X90516666Y-99277380D02*
X91183333Y-99277380D01*
X90754761Y-100277380D01*
%TO.C,C8*%
X90408333Y-106032142D02*
X90360714Y-106079761D01*
X90217857Y-106127380D01*
X90122619Y-106127380D01*
X89979761Y-106079761D01*
X89884523Y-105984523D01*
X89836904Y-105889285D01*
X89789285Y-105698809D01*
X89789285Y-105555952D01*
X89836904Y-105365476D01*
X89884523Y-105270238D01*
X89979761Y-105175000D01*
X90122619Y-105127380D01*
X90217857Y-105127380D01*
X90360714Y-105175000D01*
X90408333Y-105222619D01*
X90979761Y-105555952D02*
X90884523Y-105508333D01*
X90836904Y-105460714D01*
X90789285Y-105365476D01*
X90789285Y-105317857D01*
X90836904Y-105222619D01*
X90884523Y-105175000D01*
X90979761Y-105127380D01*
X91170238Y-105127380D01*
X91265476Y-105175000D01*
X91313095Y-105222619D01*
X91360714Y-105317857D01*
X91360714Y-105365476D01*
X91313095Y-105460714D01*
X91265476Y-105508333D01*
X91170238Y-105555952D01*
X90979761Y-105555952D01*
X90884523Y-105603571D01*
X90836904Y-105651190D01*
X90789285Y-105746428D01*
X90789285Y-105936904D01*
X90836904Y-106032142D01*
X90884523Y-106079761D01*
X90979761Y-106127380D01*
X91170238Y-106127380D01*
X91265476Y-106079761D01*
X91313095Y-106032142D01*
X91360714Y-105936904D01*
X91360714Y-105746428D01*
X91313095Y-105651190D01*
X91265476Y-105603571D01*
X91170238Y-105555952D01*
%TO.C,C9*%
X68708333Y-103382142D02*
X68660714Y-103429761D01*
X68517857Y-103477380D01*
X68422619Y-103477380D01*
X68279761Y-103429761D01*
X68184523Y-103334523D01*
X68136904Y-103239285D01*
X68089285Y-103048809D01*
X68089285Y-102905952D01*
X68136904Y-102715476D01*
X68184523Y-102620238D01*
X68279761Y-102525000D01*
X68422619Y-102477380D01*
X68517857Y-102477380D01*
X68660714Y-102525000D01*
X68708333Y-102572619D01*
X69184523Y-103477380D02*
X69375000Y-103477380D01*
X69470238Y-103429761D01*
X69517857Y-103382142D01*
X69613095Y-103239285D01*
X69660714Y-103048809D01*
X69660714Y-102667857D01*
X69613095Y-102572619D01*
X69565476Y-102525000D01*
X69470238Y-102477380D01*
X69279761Y-102477380D01*
X69184523Y-102525000D01*
X69136904Y-102572619D01*
X69089285Y-102667857D01*
X69089285Y-102905952D01*
X69136904Y-103001190D01*
X69184523Y-103048809D01*
X69279761Y-103096428D01*
X69470238Y-103096428D01*
X69565476Y-103048809D01*
X69613095Y-103001190D01*
X69660714Y-102905952D01*
%TO.C,C10*%
X72482142Y-108582142D02*
X72434523Y-108629761D01*
X72291666Y-108677380D01*
X72196428Y-108677380D01*
X72053571Y-108629761D01*
X71958333Y-108534523D01*
X71910714Y-108439285D01*
X71863095Y-108248809D01*
X71863095Y-108105952D01*
X71910714Y-107915476D01*
X71958333Y-107820238D01*
X72053571Y-107725000D01*
X72196428Y-107677380D01*
X72291666Y-107677380D01*
X72434523Y-107725000D01*
X72482142Y-107772619D01*
X73434523Y-108677380D02*
X72863095Y-108677380D01*
X73148809Y-108677380D02*
X73148809Y-107677380D01*
X73053571Y-107820238D01*
X72958333Y-107915476D01*
X72863095Y-107963095D01*
X74053571Y-107677380D02*
X74148809Y-107677380D01*
X74244047Y-107725000D01*
X74291666Y-107772619D01*
X74339285Y-107867857D01*
X74386904Y-108058333D01*
X74386904Y-108296428D01*
X74339285Y-108486904D01*
X74291666Y-108582142D01*
X74244047Y-108629761D01*
X74148809Y-108677380D01*
X74053571Y-108677380D01*
X73958333Y-108629761D01*
X73910714Y-108582142D01*
X73863095Y-108486904D01*
X73815476Y-108296428D01*
X73815476Y-108058333D01*
X73863095Y-107867857D01*
X73910714Y-107772619D01*
X73958333Y-107725000D01*
X74053571Y-107677380D01*
%TO.C,C11*%
X72407142Y-98382142D02*
X72359523Y-98429761D01*
X72216666Y-98477380D01*
X72121428Y-98477380D01*
X71978571Y-98429761D01*
X71883333Y-98334523D01*
X71835714Y-98239285D01*
X71788095Y-98048809D01*
X71788095Y-97905952D01*
X71835714Y-97715476D01*
X71883333Y-97620238D01*
X71978571Y-97525000D01*
X72121428Y-97477380D01*
X72216666Y-97477380D01*
X72359523Y-97525000D01*
X72407142Y-97572619D01*
X73359523Y-98477380D02*
X72788095Y-98477380D01*
X73073809Y-98477380D02*
X73073809Y-97477380D01*
X72978571Y-97620238D01*
X72883333Y-97715476D01*
X72788095Y-97763095D01*
X74311904Y-98477380D02*
X73740476Y-98477380D01*
X74026190Y-98477380D02*
X74026190Y-97477380D01*
X73930952Y-97620238D01*
X73835714Y-97715476D01*
X73740476Y-97763095D01*
%TO.C,C12*%
X70632142Y-103407142D02*
X70584523Y-103454761D01*
X70441666Y-103502380D01*
X70346428Y-103502380D01*
X70203571Y-103454761D01*
X70108333Y-103359523D01*
X70060714Y-103264285D01*
X70013095Y-103073809D01*
X70013095Y-102930952D01*
X70060714Y-102740476D01*
X70108333Y-102645238D01*
X70203571Y-102550000D01*
X70346428Y-102502380D01*
X70441666Y-102502380D01*
X70584523Y-102550000D01*
X70632142Y-102597619D01*
X71584523Y-103502380D02*
X71013095Y-103502380D01*
X71298809Y-103502380D02*
X71298809Y-102502380D01*
X71203571Y-102645238D01*
X71108333Y-102740476D01*
X71013095Y-102788095D01*
X71965476Y-102597619D02*
X72013095Y-102550000D01*
X72108333Y-102502380D01*
X72346428Y-102502380D01*
X72441666Y-102550000D01*
X72489285Y-102597619D01*
X72536904Y-102692857D01*
X72536904Y-102788095D01*
X72489285Y-102930952D01*
X71917857Y-103502380D01*
X72536904Y-103502380D01*
%TO.C,FB1*%
X65441666Y-100103571D02*
X65108333Y-100103571D01*
X65108333Y-100627380D02*
X65108333Y-99627380D01*
X65584523Y-99627380D01*
X66298809Y-100103571D02*
X66441666Y-100151190D01*
X66489285Y-100198809D01*
X66536904Y-100294047D01*
X66536904Y-100436904D01*
X66489285Y-100532142D01*
X66441666Y-100579761D01*
X66346428Y-100627380D01*
X65965476Y-100627380D01*
X65965476Y-99627380D01*
X66298809Y-99627380D01*
X66394047Y-99675000D01*
X66441666Y-99722619D01*
X66489285Y-99817857D01*
X66489285Y-99913095D01*
X66441666Y-100008333D01*
X66394047Y-100055952D01*
X66298809Y-100103571D01*
X65965476Y-100103571D01*
X67489285Y-100627380D02*
X66917857Y-100627380D01*
X67203571Y-100627380D02*
X67203571Y-99627380D01*
X67108333Y-99770238D01*
X67013095Y-99865476D01*
X66917857Y-99913095D01*
%TO.C,FB2*%
X65341666Y-101928571D02*
X65008333Y-101928571D01*
X65008333Y-102452380D02*
X65008333Y-101452380D01*
X65484523Y-101452380D01*
X66198809Y-101928571D02*
X66341666Y-101976190D01*
X66389285Y-102023809D01*
X66436904Y-102119047D01*
X66436904Y-102261904D01*
X66389285Y-102357142D01*
X66341666Y-102404761D01*
X66246428Y-102452380D01*
X65865476Y-102452380D01*
X65865476Y-101452380D01*
X66198809Y-101452380D01*
X66294047Y-101500000D01*
X66341666Y-101547619D01*
X66389285Y-101642857D01*
X66389285Y-101738095D01*
X66341666Y-101833333D01*
X66294047Y-101880952D01*
X66198809Y-101928571D01*
X65865476Y-101928571D01*
X66817857Y-101547619D02*
X66865476Y-101500000D01*
X66960714Y-101452380D01*
X67198809Y-101452380D01*
X67294047Y-101500000D01*
X67341666Y-101547619D01*
X67389285Y-101642857D01*
X67389285Y-101738095D01*
X67341666Y-101880952D01*
X66770238Y-102452380D01*
X67389285Y-102452380D01*
%TO.C,H1*%
X46738095Y-99277380D02*
X46738095Y-98277380D01*
X46738095Y-98753571D02*
X47309523Y-98753571D01*
X47309523Y-99277380D02*
X47309523Y-98277380D01*
X48309523Y-99277380D02*
X47738095Y-99277380D01*
X48023809Y-99277380D02*
X48023809Y-98277380D01*
X47928571Y-98420238D01*
X47833333Y-98515476D01*
X47738095Y-98563095D01*
%TO.C,H2*%
X87863095Y-94952380D02*
X87863095Y-93952380D01*
X87863095Y-94428571D02*
X88434523Y-94428571D01*
X88434523Y-94952380D02*
X88434523Y-93952380D01*
X88863095Y-94047619D02*
X88910714Y-94000000D01*
X89005952Y-93952380D01*
X89244047Y-93952380D01*
X89339285Y-94000000D01*
X89386904Y-94047619D01*
X89434523Y-94142857D01*
X89434523Y-94238095D01*
X89386904Y-94380952D01*
X88815476Y-94952380D01*
X89434523Y-94952380D01*
%TO.C,H3*%
X87888095Y-124177380D02*
X87888095Y-123177380D01*
X87888095Y-123653571D02*
X88459523Y-123653571D01*
X88459523Y-124177380D02*
X88459523Y-123177380D01*
X88840476Y-123177380D02*
X89459523Y-123177380D01*
X89126190Y-123558333D01*
X89269047Y-123558333D01*
X89364285Y-123605952D01*
X89411904Y-123653571D01*
X89459523Y-123748809D01*
X89459523Y-123986904D01*
X89411904Y-124082142D01*
X89364285Y-124129761D01*
X89269047Y-124177380D01*
X88983333Y-124177380D01*
X88888095Y-124129761D01*
X88840476Y-124082142D01*
%TO.C,H4*%
X46738095Y-119752380D02*
X46738095Y-118752380D01*
X46738095Y-119228571D02*
X47309523Y-119228571D01*
X47309523Y-119752380D02*
X47309523Y-118752380D01*
X48214285Y-119085714D02*
X48214285Y-119752380D01*
X47976190Y-118704761D02*
X47738095Y-119419047D01*
X48357142Y-119419047D01*
%TO.C,R1*%
X70883333Y-113577380D02*
X70550000Y-113101190D01*
X70311904Y-113577380D02*
X70311904Y-112577380D01*
X70692857Y-112577380D01*
X70788095Y-112625000D01*
X70835714Y-112672619D01*
X70883333Y-112767857D01*
X70883333Y-112910714D01*
X70835714Y-113005952D01*
X70788095Y-113053571D01*
X70692857Y-113101190D01*
X70311904Y-113101190D01*
X71835714Y-113577380D02*
X71264285Y-113577380D01*
X71550000Y-113577380D02*
X71550000Y-112577380D01*
X71454761Y-112720238D01*
X71359523Y-112815476D01*
X71264285Y-112863095D01*
%TO.C,R2*%
X59158333Y-117627380D02*
X58825000Y-117151190D01*
X58586904Y-117627380D02*
X58586904Y-116627380D01*
X58967857Y-116627380D01*
X59063095Y-116675000D01*
X59110714Y-116722619D01*
X59158333Y-116817857D01*
X59158333Y-116960714D01*
X59110714Y-117055952D01*
X59063095Y-117103571D01*
X58967857Y-117151190D01*
X58586904Y-117151190D01*
X59539285Y-116722619D02*
X59586904Y-116675000D01*
X59682142Y-116627380D01*
X59920238Y-116627380D01*
X60015476Y-116675000D01*
X60063095Y-116722619D01*
X60110714Y-116817857D01*
X60110714Y-116913095D01*
X60063095Y-117055952D01*
X59491666Y-117627380D01*
X60110714Y-117627380D01*
%TO.C,R4*%
X63633333Y-117627380D02*
X63300000Y-117151190D01*
X63061904Y-117627380D02*
X63061904Y-116627380D01*
X63442857Y-116627380D01*
X63538095Y-116675000D01*
X63585714Y-116722619D01*
X63633333Y-116817857D01*
X63633333Y-116960714D01*
X63585714Y-117055952D01*
X63538095Y-117103571D01*
X63442857Y-117151190D01*
X63061904Y-117151190D01*
X64490476Y-116960714D02*
X64490476Y-117627380D01*
X64252380Y-116579761D02*
X64014285Y-117294047D01*
X64633333Y-117294047D01*
%TO.C,R5*%
X73158333Y-113577380D02*
X72825000Y-113101190D01*
X72586904Y-113577380D02*
X72586904Y-112577380D01*
X72967857Y-112577380D01*
X73063095Y-112625000D01*
X73110714Y-112672619D01*
X73158333Y-112767857D01*
X73158333Y-112910714D01*
X73110714Y-113005952D01*
X73063095Y-113053571D01*
X72967857Y-113101190D01*
X72586904Y-113101190D01*
X74063095Y-112577380D02*
X73586904Y-112577380D01*
X73539285Y-113053571D01*
X73586904Y-113005952D01*
X73682142Y-112958333D01*
X73920238Y-112958333D01*
X74015476Y-113005952D01*
X74063095Y-113053571D01*
X74110714Y-113148809D01*
X74110714Y-113386904D01*
X74063095Y-113482142D01*
X74015476Y-113529761D01*
X73920238Y-113577380D01*
X73682142Y-113577380D01*
X73586904Y-113529761D01*
X73539285Y-113482142D01*
%TO.C,R6*%
X61408333Y-117652380D02*
X61075000Y-117176190D01*
X60836904Y-117652380D02*
X60836904Y-116652380D01*
X61217857Y-116652380D01*
X61313095Y-116700000D01*
X61360714Y-116747619D01*
X61408333Y-116842857D01*
X61408333Y-116985714D01*
X61360714Y-117080952D01*
X61313095Y-117128571D01*
X61217857Y-117176190D01*
X60836904Y-117176190D01*
X62265476Y-116652380D02*
X62075000Y-116652380D01*
X61979761Y-116700000D01*
X61932142Y-116747619D01*
X61836904Y-116890476D01*
X61789285Y-117080952D01*
X61789285Y-117461904D01*
X61836904Y-117557142D01*
X61884523Y-117604761D01*
X61979761Y-117652380D01*
X62170238Y-117652380D01*
X62265476Y-117604761D01*
X62313095Y-117557142D01*
X62360714Y-117461904D01*
X62360714Y-117223809D01*
X62313095Y-117128571D01*
X62265476Y-117080952D01*
X62170238Y-117033333D01*
X61979761Y-117033333D01*
X61884523Y-117080952D01*
X61836904Y-117128571D01*
X61789285Y-117223809D01*
%TO.C,R7*%
X84733333Y-106777380D02*
X84400000Y-106301190D01*
X84161904Y-106777380D02*
X84161904Y-105777380D01*
X84542857Y-105777380D01*
X84638095Y-105825000D01*
X84685714Y-105872619D01*
X84733333Y-105967857D01*
X84733333Y-106110714D01*
X84685714Y-106205952D01*
X84638095Y-106253571D01*
X84542857Y-106301190D01*
X84161904Y-106301190D01*
X85066666Y-105777380D02*
X85733333Y-105777380D01*
X85304761Y-106777380D01*
%TO.C,R8*%
X84708333Y-104402380D02*
X84375000Y-103926190D01*
X84136904Y-104402380D02*
X84136904Y-103402380D01*
X84517857Y-103402380D01*
X84613095Y-103450000D01*
X84660714Y-103497619D01*
X84708333Y-103592857D01*
X84708333Y-103735714D01*
X84660714Y-103830952D01*
X84613095Y-103878571D01*
X84517857Y-103926190D01*
X84136904Y-103926190D01*
X85279761Y-103830952D02*
X85184523Y-103783333D01*
X85136904Y-103735714D01*
X85089285Y-103640476D01*
X85089285Y-103592857D01*
X85136904Y-103497619D01*
X85184523Y-103450000D01*
X85279761Y-103402380D01*
X85470238Y-103402380D01*
X85565476Y-103450000D01*
X85613095Y-103497619D01*
X85660714Y-103592857D01*
X85660714Y-103640476D01*
X85613095Y-103735714D01*
X85565476Y-103783333D01*
X85470238Y-103830952D01*
X85279761Y-103830952D01*
X85184523Y-103878571D01*
X85136904Y-103926190D01*
X85089285Y-104021428D01*
X85089285Y-104211904D01*
X85136904Y-104307142D01*
X85184523Y-104354761D01*
X85279761Y-104402380D01*
X85470238Y-104402380D01*
X85565476Y-104354761D01*
X85613095Y-104307142D01*
X85660714Y-104211904D01*
X85660714Y-104021428D01*
X85613095Y-103926190D01*
X85565476Y-103878571D01*
X85470238Y-103830952D01*
%TO.C,R9*%
X84633333Y-102102380D02*
X84300000Y-101626190D01*
X84061904Y-102102380D02*
X84061904Y-101102380D01*
X84442857Y-101102380D01*
X84538095Y-101150000D01*
X84585714Y-101197619D01*
X84633333Y-101292857D01*
X84633333Y-101435714D01*
X84585714Y-101530952D01*
X84538095Y-101578571D01*
X84442857Y-101626190D01*
X84061904Y-101626190D01*
X85109523Y-102102380D02*
X85300000Y-102102380D01*
X85395238Y-102054761D01*
X85442857Y-102007142D01*
X85538095Y-101864285D01*
X85585714Y-101673809D01*
X85585714Y-101292857D01*
X85538095Y-101197619D01*
X85490476Y-101150000D01*
X85395238Y-101102380D01*
X85204761Y-101102380D01*
X85109523Y-101150000D01*
X85061904Y-101197619D01*
X85014285Y-101292857D01*
X85014285Y-101530952D01*
X85061904Y-101626190D01*
X85109523Y-101673809D01*
X85204761Y-101721428D01*
X85395238Y-101721428D01*
X85490476Y-101673809D01*
X85538095Y-101626190D01*
X85585714Y-101530952D01*
%TO.C,R10*%
X84732142Y-99577380D02*
X84398809Y-99101190D01*
X84160714Y-99577380D02*
X84160714Y-98577380D01*
X84541666Y-98577380D01*
X84636904Y-98625000D01*
X84684523Y-98672619D01*
X84732142Y-98767857D01*
X84732142Y-98910714D01*
X84684523Y-99005952D01*
X84636904Y-99053571D01*
X84541666Y-99101190D01*
X84160714Y-99101190D01*
X85684523Y-99577380D02*
X85113095Y-99577380D01*
X85398809Y-99577380D02*
X85398809Y-98577380D01*
X85303571Y-98720238D01*
X85208333Y-98815476D01*
X85113095Y-98863095D01*
X86303571Y-98577380D02*
X86398809Y-98577380D01*
X86494047Y-98625000D01*
X86541666Y-98672619D01*
X86589285Y-98767857D01*
X86636904Y-98958333D01*
X86636904Y-99196428D01*
X86589285Y-99386904D01*
X86541666Y-99482142D01*
X86494047Y-99529761D01*
X86398809Y-99577380D01*
X86303571Y-99577380D01*
X86208333Y-99529761D01*
X86160714Y-99482142D01*
X86113095Y-99386904D01*
X86065476Y-99196428D01*
X86065476Y-98958333D01*
X86113095Y-98767857D01*
X86160714Y-98672619D01*
X86208333Y-98625000D01*
X86303571Y-98577380D01*
%TO.C,U1*%
X54138095Y-115452380D02*
X54138095Y-116261904D01*
X54185714Y-116357142D01*
X54233333Y-116404761D01*
X54328571Y-116452380D01*
X54519047Y-116452380D01*
X54614285Y-116404761D01*
X54661904Y-116357142D01*
X54709523Y-116261904D01*
X54709523Y-115452380D01*
X55709523Y-116452380D02*
X55138095Y-116452380D01*
X55423809Y-116452380D02*
X55423809Y-115452380D01*
X55328571Y-115595238D01*
X55233333Y-115690476D01*
X55138095Y-115738095D01*
%TO.C,U2*%
X64038095Y-109427380D02*
X64038095Y-110236904D01*
X64085714Y-110332142D01*
X64133333Y-110379761D01*
X64228571Y-110427380D01*
X64419047Y-110427380D01*
X64514285Y-110379761D01*
X64561904Y-110332142D01*
X64609523Y-110236904D01*
X64609523Y-109427380D01*
X65038095Y-109522619D02*
X65085714Y-109475000D01*
X65180952Y-109427380D01*
X65419047Y-109427380D01*
X65514285Y-109475000D01*
X65561904Y-109522619D01*
X65609523Y-109617857D01*
X65609523Y-109713095D01*
X65561904Y-109855952D01*
X64990476Y-110427380D01*
X65609523Y-110427380D01*
%TO.C,J1*%
X95452380Y-106833333D02*
X96166666Y-106833333D01*
X96309523Y-106880952D01*
X96404761Y-106976190D01*
X96452380Y-107119047D01*
X96452380Y-107214285D01*
X96452380Y-105833333D02*
X96452380Y-106404761D01*
X96452380Y-106119047D02*
X95452380Y-106119047D01*
X95595238Y-106214285D01*
X95690476Y-106309523D01*
X95738095Y-106404761D01*
%TD*%
M02*
