%TF.GenerationSoftware,KiCad,Pcbnew,(5.1.10)-1*%
%TF.CreationDate,2021-10-14T20:44:39-03:00*%
%TF.ProjectId,I2S_DAC,4932535f-4441-4432-9e6b-696361645f70,rev?*%
%TF.SameCoordinates,Original*%
%TF.FileFunction,Copper,L1,Top*%
%TF.FilePolarity,Positive*%
%FSLAX46Y46*%
G04 Gerber Fmt 4.6, Leading zero omitted, Abs format (unit mm)*
G04 Created by KiCad (PCBNEW (5.1.10)-1) date 2021-10-14 20:44:39*
%MOMM*%
%LPD*%
G01*
G04 APERTURE LIST*
%TA.AperFunction,ComponentPad*%
%ADD10R,1.700000X1.700000*%
%TD*%
%TA.AperFunction,ComponentPad*%
%ADD11O,1.700000X1.700000*%
%TD*%
%TA.AperFunction,SMDPad,CuDef*%
%ADD12C,1.000000*%
%TD*%
%TA.AperFunction,SMDPad,CuDef*%
%ADD13R,1.060000X0.650000*%
%TD*%
%TA.AperFunction,SMDPad,CuDef*%
%ADD14R,1.000000X0.400000*%
%TD*%
%TA.AperFunction,SMDPad,CuDef*%
%ADD15R,2.200000X2.800000*%
%TD*%
%TA.AperFunction,SMDPad,CuDef*%
%ADD16R,2.600000X2.800000*%
%TD*%
%TA.AperFunction,SMDPad,CuDef*%
%ADD17R,2.800000X2.800000*%
%TD*%
%TA.AperFunction,ViaPad*%
%ADD18C,0.800000*%
%TD*%
%TA.AperFunction,Conductor*%
%ADD19C,0.250000*%
%TD*%
%TA.AperFunction,Conductor*%
%ADD20C,0.500000*%
%TD*%
%TA.AperFunction,Conductor*%
%ADD21C,0.400000*%
%TD*%
G04 APERTURE END LIST*
D10*
%TO.P,J2,1*%
%TO.N,/SYSCLK_IN*%
X66725000Y-94350000D03*
D11*
%TO.P,J2,2*%
%TO.N,/SFOR_1*%
X69265000Y-94350000D03*
%TO.P,J2,3*%
%TO.N,/MUTE*%
X71805000Y-94350000D03*
%TO.P,J2,4*%
%TO.N,/SFOR_0*%
X74345000Y-94350000D03*
%TO.P,J2,5*%
%TO.N,/PLL_IN*%
X76885000Y-94350000D03*
%TO.P,J2,6*%
%TO.N,/CLKOUT*%
X79425000Y-94350000D03*
%TD*%
D10*
%TO.P,J3,1*%
%TO.N,VDD*%
X60650000Y-121925000D03*
D11*
%TO.P,J3,2*%
%TO.N,+3V3*%
X63190000Y-121925000D03*
%TO.P,J3,3*%
%TO.N,GNDD*%
X65730000Y-121925000D03*
%TO.P,J3,4*%
%TO.N,/DATA_IN*%
X68270000Y-121925000D03*
%TO.P,J3,5*%
%TO.N,/WS_IN*%
X70810000Y-121925000D03*
%TO.P,J3,6*%
%TO.N,/BCK_IN*%
X73350000Y-121925000D03*
%TO.P,J3,7*%
%TO.N,/OUT_L*%
X75890000Y-121925000D03*
%TO.P,J3,8*%
%TO.N,GNDA*%
X78430000Y-121925000D03*
%TO.P,J3,9*%
%TO.N,/OUT_R*%
X80970000Y-121925000D03*
%TD*%
%TO.P,C1,2*%
%TO.N,GNDD*%
%TA.AperFunction,SMDPad,CuDef*%
G36*
G01*
X51325000Y-113400000D02*
X52275000Y-113400000D01*
G75*
G02*
X52525000Y-113650000I0J-250000D01*
G01*
X52525000Y-114150000D01*
G75*
G02*
X52275000Y-114400000I-250000J0D01*
G01*
X51325000Y-114400000D01*
G75*
G02*
X51075000Y-114150000I0J250000D01*
G01*
X51075000Y-113650000D01*
G75*
G02*
X51325000Y-113400000I250000J0D01*
G01*
G37*
%TD.AperFunction*%
%TO.P,C1,1*%
%TO.N,VDD*%
%TA.AperFunction,SMDPad,CuDef*%
G36*
G01*
X51325000Y-111500000D02*
X52275000Y-111500000D01*
G75*
G02*
X52525000Y-111750000I0J-250000D01*
G01*
X52525000Y-112250000D01*
G75*
G02*
X52275000Y-112500000I-250000J0D01*
G01*
X51325000Y-112500000D01*
G75*
G02*
X51075000Y-112250000I0J250000D01*
G01*
X51075000Y-111750000D01*
G75*
G02*
X51325000Y-111500000I250000J0D01*
G01*
G37*
%TD.AperFunction*%
%TD*%
%TO.P,C2,2*%
%TO.N,GNDD*%
%TA.AperFunction,SMDPad,CuDef*%
G36*
G01*
X55200000Y-109400000D02*
X55200000Y-110350000D01*
G75*
G02*
X54950000Y-110600000I-250000J0D01*
G01*
X54450000Y-110600000D01*
G75*
G02*
X54200000Y-110350000I0J250000D01*
G01*
X54200000Y-109400000D01*
G75*
G02*
X54450000Y-109150000I250000J0D01*
G01*
X54950000Y-109150000D01*
G75*
G02*
X55200000Y-109400000I0J-250000D01*
G01*
G37*
%TD.AperFunction*%
%TO.P,C2,1*%
%TO.N,+3V3*%
%TA.AperFunction,SMDPad,CuDef*%
G36*
G01*
X57100000Y-109400000D02*
X57100000Y-110350000D01*
G75*
G02*
X56850000Y-110600000I-250000J0D01*
G01*
X56350000Y-110600000D01*
G75*
G02*
X56100000Y-110350000I0J250000D01*
G01*
X56100000Y-109400000D01*
G75*
G02*
X56350000Y-109150000I250000J0D01*
G01*
X56850000Y-109150000D01*
G75*
G02*
X57100000Y-109400000I0J-250000D01*
G01*
G37*
%TD.AperFunction*%
%TD*%
%TO.P,C3,1*%
%TO.N,GNDD*%
%TA.AperFunction,SMDPad,CuDef*%
G36*
G01*
X54200000Y-107850000D02*
X54200000Y-106900000D01*
G75*
G02*
X54450000Y-106650000I250000J0D01*
G01*
X54950000Y-106650000D01*
G75*
G02*
X55200000Y-106900000I0J-250000D01*
G01*
X55200000Y-107850000D01*
G75*
G02*
X54950000Y-108100000I-250000J0D01*
G01*
X54450000Y-108100000D01*
G75*
G02*
X54200000Y-107850000I0J250000D01*
G01*
G37*
%TD.AperFunction*%
%TO.P,C3,2*%
%TO.N,+3V3*%
%TA.AperFunction,SMDPad,CuDef*%
G36*
G01*
X56100000Y-107850000D02*
X56100000Y-106900000D01*
G75*
G02*
X56350000Y-106650000I250000J0D01*
G01*
X56850000Y-106650000D01*
G75*
G02*
X57100000Y-106900000I0J-250000D01*
G01*
X57100000Y-107850000D01*
G75*
G02*
X56850000Y-108100000I-250000J0D01*
G01*
X56350000Y-108100000D01*
G75*
G02*
X56100000Y-107850000I0J250000D01*
G01*
G37*
%TD.AperFunction*%
%TD*%
%TO.P,C4,2*%
%TO.N,GNDD*%
%TA.AperFunction,SMDPad,CuDef*%
G36*
G01*
X55200000Y-104400000D02*
X55200000Y-105350000D01*
G75*
G02*
X54950000Y-105600000I-250000J0D01*
G01*
X54450000Y-105600000D01*
G75*
G02*
X54200000Y-105350000I0J250000D01*
G01*
X54200000Y-104400000D01*
G75*
G02*
X54450000Y-104150000I250000J0D01*
G01*
X54950000Y-104150000D01*
G75*
G02*
X55200000Y-104400000I0J-250000D01*
G01*
G37*
%TD.AperFunction*%
%TO.P,C4,1*%
%TO.N,+3V3*%
%TA.AperFunction,SMDPad,CuDef*%
G36*
G01*
X57100000Y-104400000D02*
X57100000Y-105350000D01*
G75*
G02*
X56850000Y-105600000I-250000J0D01*
G01*
X56350000Y-105600000D01*
G75*
G02*
X56100000Y-105350000I0J250000D01*
G01*
X56100000Y-104400000D01*
G75*
G02*
X56350000Y-104150000I250000J0D01*
G01*
X56850000Y-104150000D01*
G75*
G02*
X57100000Y-104400000I0J-250000D01*
G01*
G37*
%TD.AperFunction*%
%TD*%
%TO.P,C5,1*%
%TO.N,GNDA*%
%TA.AperFunction,SMDPad,CuDef*%
G36*
G01*
X64575000Y-94875000D02*
X64575000Y-95825000D01*
G75*
G02*
X64325000Y-96075000I-250000J0D01*
G01*
X63825000Y-96075000D01*
G75*
G02*
X63575000Y-95825000I0J250000D01*
G01*
X63575000Y-94875000D01*
G75*
G02*
X63825000Y-94625000I250000J0D01*
G01*
X64325000Y-94625000D01*
G75*
G02*
X64575000Y-94875000I0J-250000D01*
G01*
G37*
%TD.AperFunction*%
%TO.P,C5,2*%
%TO.N,Net-(C5-Pad2)*%
%TA.AperFunction,SMDPad,CuDef*%
G36*
G01*
X62675000Y-94875000D02*
X62675000Y-95825000D01*
G75*
G02*
X62425000Y-96075000I-250000J0D01*
G01*
X61925000Y-96075000D01*
G75*
G02*
X61675000Y-95825000I0J250000D01*
G01*
X61675000Y-94875000D01*
G75*
G02*
X61925000Y-94625000I250000J0D01*
G01*
X62425000Y-94625000D01*
G75*
G02*
X62675000Y-94875000I0J-250000D01*
G01*
G37*
%TD.AperFunction*%
%TD*%
%TO.P,C6,2*%
%TO.N,Net-(C5-Pad2)*%
%TA.AperFunction,SMDPad,CuDef*%
G36*
G01*
X62675000Y-97200000D02*
X62675000Y-98150000D01*
G75*
G02*
X62425000Y-98400000I-250000J0D01*
G01*
X61925000Y-98400000D01*
G75*
G02*
X61675000Y-98150000I0J250000D01*
G01*
X61675000Y-97200000D01*
G75*
G02*
X61925000Y-96950000I250000J0D01*
G01*
X62425000Y-96950000D01*
G75*
G02*
X62675000Y-97200000I0J-250000D01*
G01*
G37*
%TD.AperFunction*%
%TO.P,C6,1*%
%TO.N,GNDA*%
%TA.AperFunction,SMDPad,CuDef*%
G36*
G01*
X64575000Y-97200000D02*
X64575000Y-98150000D01*
G75*
G02*
X64325000Y-98400000I-250000J0D01*
G01*
X63825000Y-98400000D01*
G75*
G02*
X63575000Y-98150000I0J250000D01*
G01*
X63575000Y-97200000D01*
G75*
G02*
X63825000Y-96950000I250000J0D01*
G01*
X64325000Y-96950000D01*
G75*
G02*
X64575000Y-97200000I0J-250000D01*
G01*
G37*
%TD.AperFunction*%
%TD*%
%TO.P,C7,1*%
%TO.N,GNDA*%
%TA.AperFunction,SMDPad,CuDef*%
G36*
G01*
X88700000Y-101425000D02*
X87750000Y-101425000D01*
G75*
G02*
X87500000Y-101175000I0J250000D01*
G01*
X87500000Y-100675000D01*
G75*
G02*
X87750000Y-100425000I250000J0D01*
G01*
X88700000Y-100425000D01*
G75*
G02*
X88950000Y-100675000I0J-250000D01*
G01*
X88950000Y-101175000D01*
G75*
G02*
X88700000Y-101425000I-250000J0D01*
G01*
G37*
%TD.AperFunction*%
%TO.P,C7,2*%
%TO.N,/OUT_R*%
%TA.AperFunction,SMDPad,CuDef*%
G36*
G01*
X88700000Y-99525000D02*
X87750000Y-99525000D01*
G75*
G02*
X87500000Y-99275000I0J250000D01*
G01*
X87500000Y-98775000D01*
G75*
G02*
X87750000Y-98525000I250000J0D01*
G01*
X88700000Y-98525000D01*
G75*
G02*
X88950000Y-98775000I0J-250000D01*
G01*
X88950000Y-99275000D01*
G75*
G02*
X88700000Y-99525000I-250000J0D01*
G01*
G37*
%TD.AperFunction*%
%TD*%
%TO.P,C8,1*%
%TO.N,/OUT_L*%
%TA.AperFunction,SMDPad,CuDef*%
G36*
G01*
X88925000Y-107175000D02*
X87975000Y-107175000D01*
G75*
G02*
X87725000Y-106925000I0J250000D01*
G01*
X87725000Y-106425000D01*
G75*
G02*
X87975000Y-106175000I250000J0D01*
G01*
X88925000Y-106175000D01*
G75*
G02*
X89175000Y-106425000I0J-250000D01*
G01*
X89175000Y-106925000D01*
G75*
G02*
X88925000Y-107175000I-250000J0D01*
G01*
G37*
%TD.AperFunction*%
%TO.P,C8,2*%
%TO.N,GNDA*%
%TA.AperFunction,SMDPad,CuDef*%
G36*
G01*
X88925000Y-105275000D02*
X87975000Y-105275000D01*
G75*
G02*
X87725000Y-105025000I0J250000D01*
G01*
X87725000Y-104525000D01*
G75*
G02*
X87975000Y-104275000I250000J0D01*
G01*
X88925000Y-104275000D01*
G75*
G02*
X89175000Y-104525000I0J-250000D01*
G01*
X89175000Y-105025000D01*
G75*
G02*
X88925000Y-105275000I-250000J0D01*
G01*
G37*
%TD.AperFunction*%
%TD*%
%TO.P,C9,2*%
%TO.N,GNDA*%
%TA.AperFunction,SMDPad,CuDef*%
G36*
G01*
X69375000Y-105300000D02*
X68425000Y-105300000D01*
G75*
G02*
X68175000Y-105050000I0J250000D01*
G01*
X68175000Y-104550000D01*
G75*
G02*
X68425000Y-104300000I250000J0D01*
G01*
X69375000Y-104300000D01*
G75*
G02*
X69625000Y-104550000I0J-250000D01*
G01*
X69625000Y-105050000D01*
G75*
G02*
X69375000Y-105300000I-250000J0D01*
G01*
G37*
%TD.AperFunction*%
%TO.P,C9,1*%
%TO.N,Net-(C12-Pad1)*%
%TA.AperFunction,SMDPad,CuDef*%
G36*
G01*
X69375000Y-107200000D02*
X68425000Y-107200000D01*
G75*
G02*
X68175000Y-106950000I0J250000D01*
G01*
X68175000Y-106450000D01*
G75*
G02*
X68425000Y-106200000I250000J0D01*
G01*
X69375000Y-106200000D01*
G75*
G02*
X69625000Y-106450000I0J-250000D01*
G01*
X69625000Y-106950000D01*
G75*
G02*
X69375000Y-107200000I-250000J0D01*
G01*
G37*
%TD.AperFunction*%
%TD*%
%TO.P,C10,2*%
%TO.N,Net-(C10-Pad2)*%
%TA.AperFunction,SMDPad,CuDef*%
G36*
G01*
X76550000Y-106025400D02*
X76550000Y-104924600D01*
G75*
G02*
X76799600Y-104675000I249600J0D01*
G01*
X78950400Y-104675000D01*
G75*
G02*
X79200000Y-104924600I0J-249600D01*
G01*
X79200000Y-106025400D01*
G75*
G02*
X78950400Y-106275000I-249600J0D01*
G01*
X76799600Y-106275000D01*
G75*
G02*
X76550000Y-106025400I0J249600D01*
G01*
G37*
%TD.AperFunction*%
%TO.P,C10,1*%
%TO.N,Net-(C10-Pad1)*%
%TA.AperFunction,SMDPad,CuDef*%
G36*
G01*
X73200000Y-106025000D02*
X73200000Y-104925000D01*
G75*
G02*
X73450000Y-104675000I250000J0D01*
G01*
X75600000Y-104675000D01*
G75*
G02*
X75850000Y-104925000I0J-250000D01*
G01*
X75850000Y-106025000D01*
G75*
G02*
X75600000Y-106275000I-250000J0D01*
G01*
X73450000Y-106275000D01*
G75*
G02*
X73200000Y-106025000I0J250000D01*
G01*
G37*
%TD.AperFunction*%
%TD*%
%TO.P,C11,1*%
%TO.N,Net-(C11-Pad1)*%
%TA.AperFunction,SMDPad,CuDef*%
G36*
G01*
X73200000Y-101200000D02*
X73200000Y-100100000D01*
G75*
G02*
X73450000Y-99850000I250000J0D01*
G01*
X75600000Y-99850000D01*
G75*
G02*
X75850000Y-100100000I0J-250000D01*
G01*
X75850000Y-101200000D01*
G75*
G02*
X75600000Y-101450000I-250000J0D01*
G01*
X73450000Y-101450000D01*
G75*
G02*
X73200000Y-101200000I0J250000D01*
G01*
G37*
%TD.AperFunction*%
%TO.P,C11,2*%
%TO.N,Net-(C11-Pad2)*%
%TA.AperFunction,SMDPad,CuDef*%
G36*
G01*
X76550000Y-101200000D02*
X76550000Y-100100000D01*
G75*
G02*
X76800000Y-99850000I250000J0D01*
G01*
X78950000Y-99850000D01*
G75*
G02*
X79200000Y-100100000I0J-250000D01*
G01*
X79200000Y-101200000D01*
G75*
G02*
X78950000Y-101450000I-250000J0D01*
G01*
X76800000Y-101450000D01*
G75*
G02*
X76550000Y-101200000I0J250000D01*
G01*
G37*
%TD.AperFunction*%
%TD*%
%TO.P,C12,1*%
%TO.N,Net-(C12-Pad1)*%
%TA.AperFunction,SMDPad,CuDef*%
G36*
G01*
X71825000Y-107225000D02*
X70875000Y-107225000D01*
G75*
G02*
X70625000Y-106975000I0J250000D01*
G01*
X70625000Y-106475000D01*
G75*
G02*
X70875000Y-106225000I250000J0D01*
G01*
X71825000Y-106225000D01*
G75*
G02*
X72075000Y-106475000I0J-250000D01*
G01*
X72075000Y-106975000D01*
G75*
G02*
X71825000Y-107225000I-250000J0D01*
G01*
G37*
%TD.AperFunction*%
%TO.P,C12,2*%
%TO.N,GNDA*%
%TA.AperFunction,SMDPad,CuDef*%
G36*
G01*
X71825000Y-105325000D02*
X70875000Y-105325000D01*
G75*
G02*
X70625000Y-105075000I0J250000D01*
G01*
X70625000Y-104575000D01*
G75*
G02*
X70875000Y-104325000I250000J0D01*
G01*
X71825000Y-104325000D01*
G75*
G02*
X72075000Y-104575000I0J-250000D01*
G01*
X72075000Y-105075000D01*
G75*
G02*
X71825000Y-105325000I-250000J0D01*
G01*
G37*
%TD.AperFunction*%
%TD*%
%TO.P,FB1,1*%
%TO.N,GNDA*%
%TA.AperFunction,SMDPad,CuDef*%
G36*
G01*
X64637500Y-99468750D02*
X64637500Y-100231250D01*
G75*
G02*
X64418750Y-100450000I-218750J0D01*
G01*
X63981250Y-100450000D01*
G75*
G02*
X63762500Y-100231250I0J218750D01*
G01*
X63762500Y-99468750D01*
G75*
G02*
X63981250Y-99250000I218750J0D01*
G01*
X64418750Y-99250000D01*
G75*
G02*
X64637500Y-99468750I0J-218750D01*
G01*
G37*
%TD.AperFunction*%
%TO.P,FB1,2*%
%TO.N,GNDD*%
%TA.AperFunction,SMDPad,CuDef*%
G36*
G01*
X62512500Y-99468750D02*
X62512500Y-100231250D01*
G75*
G02*
X62293750Y-100450000I-218750J0D01*
G01*
X61856250Y-100450000D01*
G75*
G02*
X61637500Y-100231250I0J218750D01*
G01*
X61637500Y-99468750D01*
G75*
G02*
X61856250Y-99250000I218750J0D01*
G01*
X62293750Y-99250000D01*
G75*
G02*
X62512500Y-99468750I0J-218750D01*
G01*
G37*
%TD.AperFunction*%
%TD*%
%TO.P,FB2,2*%
%TO.N,+3V3*%
%TA.AperFunction,SMDPad,CuDef*%
G36*
G01*
X62500000Y-101518750D02*
X62500000Y-102281250D01*
G75*
G02*
X62281250Y-102500000I-218750J0D01*
G01*
X61843750Y-102500000D01*
G75*
G02*
X61625000Y-102281250I0J218750D01*
G01*
X61625000Y-101518750D01*
G75*
G02*
X61843750Y-101300000I218750J0D01*
G01*
X62281250Y-101300000D01*
G75*
G02*
X62500000Y-101518750I0J-218750D01*
G01*
G37*
%TD.AperFunction*%
%TO.P,FB2,1*%
%TO.N,Net-(C5-Pad2)*%
%TA.AperFunction,SMDPad,CuDef*%
G36*
G01*
X64625000Y-101518750D02*
X64625000Y-102281250D01*
G75*
G02*
X64406250Y-102500000I-218750J0D01*
G01*
X63968750Y-102500000D01*
G75*
G02*
X63750000Y-102281250I0J218750D01*
G01*
X63750000Y-101518750D01*
G75*
G02*
X63968750Y-101300000I218750J0D01*
G01*
X64406250Y-101300000D01*
G75*
G02*
X64625000Y-101518750I0J-218750D01*
G01*
G37*
%TD.AperFunction*%
%TD*%
D12*
%TO.P,FID1,*%
%TO.N,*%
X52575000Y-94850000D03*
%TD*%
%TO.P,FID2,*%
%TO.N,*%
X93775000Y-100300000D03*
%TD*%
%TO.P,FID3,*%
%TO.N,*%
X58275000Y-102850000D03*
%TD*%
%TO.P,R1,2*%
%TO.N,GNDD*%
%TA.AperFunction,SMDPad,CuDef*%
G36*
G01*
X70650100Y-111062500D02*
X71549900Y-111062500D01*
G75*
G02*
X71800000Y-111312600I0J-250100D01*
G01*
X71800000Y-111837400D01*
G75*
G02*
X71549900Y-112087500I-250100J0D01*
G01*
X70650100Y-112087500D01*
G75*
G02*
X70400000Y-111837400I0J250100D01*
G01*
X70400000Y-111312600D01*
G75*
G02*
X70650100Y-111062500I250100J0D01*
G01*
G37*
%TD.AperFunction*%
%TO.P,R1,1*%
%TO.N,/PLL_IN*%
%TA.AperFunction,SMDPad,CuDef*%
G36*
G01*
X70650100Y-109237500D02*
X71549900Y-109237500D01*
G75*
G02*
X71800000Y-109487600I0J-250100D01*
G01*
X71800000Y-110012400D01*
G75*
G02*
X71549900Y-110262500I-250100J0D01*
G01*
X70650100Y-110262500D01*
G75*
G02*
X70400000Y-110012400I0J250100D01*
G01*
X70400000Y-109487600D01*
G75*
G02*
X70650100Y-109237500I250100J0D01*
G01*
G37*
%TD.AperFunction*%
%TD*%
%TO.P,R2,1*%
%TO.N,/SYSCLK_IN*%
%TA.AperFunction,SMDPad,CuDef*%
G36*
G01*
X58824999Y-113262500D02*
X59725001Y-113262500D01*
G75*
G02*
X59975000Y-113512499I0J-249999D01*
G01*
X59975000Y-114037501D01*
G75*
G02*
X59725001Y-114287500I-249999J0D01*
G01*
X58824999Y-114287500D01*
G75*
G02*
X58575000Y-114037501I0J249999D01*
G01*
X58575000Y-113512499D01*
G75*
G02*
X58824999Y-113262500I249999J0D01*
G01*
G37*
%TD.AperFunction*%
%TO.P,R2,2*%
%TO.N,GNDD*%
%TA.AperFunction,SMDPad,CuDef*%
G36*
G01*
X58824999Y-115087500D02*
X59725001Y-115087500D01*
G75*
G02*
X59975000Y-115337499I0J-249999D01*
G01*
X59975000Y-115862501D01*
G75*
G02*
X59725001Y-116112500I-249999J0D01*
G01*
X58824999Y-116112500D01*
G75*
G02*
X58575000Y-115862501I0J249999D01*
G01*
X58575000Y-115337499D01*
G75*
G02*
X58824999Y-115087500I249999J0D01*
G01*
G37*
%TD.AperFunction*%
%TD*%
%TO.P,R4,1*%
%TO.N,/MUTE*%
%TA.AperFunction,SMDPad,CuDef*%
G36*
G01*
X63374999Y-113250000D02*
X64275001Y-113250000D01*
G75*
G02*
X64525000Y-113499999I0J-249999D01*
G01*
X64525000Y-114025001D01*
G75*
G02*
X64275001Y-114275000I-249999J0D01*
G01*
X63374999Y-114275000D01*
G75*
G02*
X63125000Y-114025001I0J249999D01*
G01*
X63125000Y-113499999D01*
G75*
G02*
X63374999Y-113250000I249999J0D01*
G01*
G37*
%TD.AperFunction*%
%TO.P,R4,2*%
%TO.N,GNDD*%
%TA.AperFunction,SMDPad,CuDef*%
G36*
G01*
X63374999Y-115075000D02*
X64275001Y-115075000D01*
G75*
G02*
X64525000Y-115324999I0J-249999D01*
G01*
X64525000Y-115850001D01*
G75*
G02*
X64275001Y-116100000I-249999J0D01*
G01*
X63374999Y-116100000D01*
G75*
G02*
X63125000Y-115850001I0J249999D01*
G01*
X63125000Y-115324999D01*
G75*
G02*
X63374999Y-115075000I249999J0D01*
G01*
G37*
%TD.AperFunction*%
%TD*%
%TO.P,R5,1*%
%TO.N,/SFOR_0*%
%TA.AperFunction,SMDPad,CuDef*%
G36*
G01*
X72900100Y-109225000D02*
X73799900Y-109225000D01*
G75*
G02*
X74050000Y-109475100I0J-250100D01*
G01*
X74050000Y-109999900D01*
G75*
G02*
X73799900Y-110250000I-250100J0D01*
G01*
X72900100Y-110250000D01*
G75*
G02*
X72650000Y-109999900I0J250100D01*
G01*
X72650000Y-109475100D01*
G75*
G02*
X72900100Y-109225000I250100J0D01*
G01*
G37*
%TD.AperFunction*%
%TO.P,R5,2*%
%TO.N,GNDD*%
%TA.AperFunction,SMDPad,CuDef*%
G36*
G01*
X72900100Y-111050000D02*
X73799900Y-111050000D01*
G75*
G02*
X74050000Y-111300100I0J-250100D01*
G01*
X74050000Y-111824900D01*
G75*
G02*
X73799900Y-112075000I-250100J0D01*
G01*
X72900100Y-112075000D01*
G75*
G02*
X72650000Y-111824900I0J250100D01*
G01*
X72650000Y-111300100D01*
G75*
G02*
X72900100Y-111050000I250100J0D01*
G01*
G37*
%TD.AperFunction*%
%TD*%
%TO.P,R6,2*%
%TO.N,GNDD*%
%TA.AperFunction,SMDPad,CuDef*%
G36*
G01*
X61149999Y-115087500D02*
X62050001Y-115087500D01*
G75*
G02*
X62300000Y-115337499I0J-249999D01*
G01*
X62300000Y-115862501D01*
G75*
G02*
X62050001Y-116112500I-249999J0D01*
G01*
X61149999Y-116112500D01*
G75*
G02*
X60900000Y-115862501I0J249999D01*
G01*
X60900000Y-115337499D01*
G75*
G02*
X61149999Y-115087500I249999J0D01*
G01*
G37*
%TD.AperFunction*%
%TO.P,R6,1*%
%TO.N,/SFOR_1*%
%TA.AperFunction,SMDPad,CuDef*%
G36*
G01*
X61149999Y-113262500D02*
X62050001Y-113262500D01*
G75*
G02*
X62300000Y-113512499I0J-249999D01*
G01*
X62300000Y-114037501D01*
G75*
G02*
X62050001Y-114287500I-249999J0D01*
G01*
X61149999Y-114287500D01*
G75*
G02*
X60900000Y-114037501I0J249999D01*
G01*
X60900000Y-113512499D01*
G75*
G02*
X61149999Y-113262500I249999J0D01*
G01*
G37*
%TD.AperFunction*%
%TD*%
%TO.P,R7,2*%
%TO.N,Net-(C10-Pad2)*%
%TA.AperFunction,SMDPad,CuDef*%
G36*
G01*
X81750000Y-105949999D02*
X81750000Y-106850001D01*
G75*
G02*
X81500001Y-107100000I-249999J0D01*
G01*
X80974999Y-107100000D01*
G75*
G02*
X80725000Y-106850001I0J249999D01*
G01*
X80725000Y-105949999D01*
G75*
G02*
X80974999Y-105700000I249999J0D01*
G01*
X81500001Y-105700000D01*
G75*
G02*
X81750000Y-105949999I0J-249999D01*
G01*
G37*
%TD.AperFunction*%
%TO.P,R7,1*%
%TO.N,/OUT_L*%
%TA.AperFunction,SMDPad,CuDef*%
G36*
G01*
X83575000Y-105949999D02*
X83575000Y-106850001D01*
G75*
G02*
X83325001Y-107100000I-249999J0D01*
G01*
X82799999Y-107100000D01*
G75*
G02*
X82550000Y-106850001I0J249999D01*
G01*
X82550000Y-105949999D01*
G75*
G02*
X82799999Y-105700000I249999J0D01*
G01*
X83325001Y-105700000D01*
G75*
G02*
X83575000Y-105949999I0J-249999D01*
G01*
G37*
%TD.AperFunction*%
%TD*%
%TO.P,R8,1*%
%TO.N,GNDA*%
%TA.AperFunction,SMDPad,CuDef*%
G36*
G01*
X83587500Y-103549999D02*
X83587500Y-104450001D01*
G75*
G02*
X83337501Y-104700000I-249999J0D01*
G01*
X82812499Y-104700000D01*
G75*
G02*
X82562500Y-104450001I0J249999D01*
G01*
X82562500Y-103549999D01*
G75*
G02*
X82812499Y-103300000I249999J0D01*
G01*
X83337501Y-103300000D01*
G75*
G02*
X83587500Y-103549999I0J-249999D01*
G01*
G37*
%TD.AperFunction*%
%TO.P,R8,2*%
%TO.N,Net-(C10-Pad2)*%
%TA.AperFunction,SMDPad,CuDef*%
G36*
G01*
X81762500Y-103549999D02*
X81762500Y-104450001D01*
G75*
G02*
X81512501Y-104700000I-249999J0D01*
G01*
X80987499Y-104700000D01*
G75*
G02*
X80737500Y-104450001I0J249999D01*
G01*
X80737500Y-103549999D01*
G75*
G02*
X80987499Y-103300000I249999J0D01*
G01*
X81512501Y-103300000D01*
G75*
G02*
X81762500Y-103549999I0J-249999D01*
G01*
G37*
%TD.AperFunction*%
%TD*%
%TO.P,R9,1*%
%TO.N,/OUT_R*%
%TA.AperFunction,SMDPad,CuDef*%
G36*
G01*
X83612500Y-98549999D02*
X83612500Y-99450001D01*
G75*
G02*
X83362501Y-99700000I-249999J0D01*
G01*
X82837499Y-99700000D01*
G75*
G02*
X82587500Y-99450001I0J249999D01*
G01*
X82587500Y-98549999D01*
G75*
G02*
X82837499Y-98300000I249999J0D01*
G01*
X83362501Y-98300000D01*
G75*
G02*
X83612500Y-98549999I0J-249999D01*
G01*
G37*
%TD.AperFunction*%
%TO.P,R9,2*%
%TO.N,Net-(C11-Pad2)*%
%TA.AperFunction,SMDPad,CuDef*%
G36*
G01*
X81787500Y-98549999D02*
X81787500Y-99450001D01*
G75*
G02*
X81537501Y-99700000I-249999J0D01*
G01*
X81012499Y-99700000D01*
G75*
G02*
X80762500Y-99450001I0J249999D01*
G01*
X80762500Y-98549999D01*
G75*
G02*
X81012499Y-98300000I249999J0D01*
G01*
X81537501Y-98300000D01*
G75*
G02*
X81787500Y-98549999I0J-249999D01*
G01*
G37*
%TD.AperFunction*%
%TD*%
%TO.P,R10,2*%
%TO.N,GNDA*%
%TA.AperFunction,SMDPad,CuDef*%
G36*
G01*
X82487500Y-102000001D02*
X82487500Y-101099999D01*
G75*
G02*
X82737499Y-100850000I249999J0D01*
G01*
X83262501Y-100850000D01*
G75*
G02*
X83512500Y-101099999I0J-249999D01*
G01*
X83512500Y-102000001D01*
G75*
G02*
X83262501Y-102250000I-249999J0D01*
G01*
X82737499Y-102250000D01*
G75*
G02*
X82487500Y-102000001I0J249999D01*
G01*
G37*
%TD.AperFunction*%
%TO.P,R10,1*%
%TO.N,Net-(C11-Pad2)*%
%TA.AperFunction,SMDPad,CuDef*%
G36*
G01*
X80662500Y-102000001D02*
X80662500Y-101099999D01*
G75*
G02*
X80912499Y-100850000I249999J0D01*
G01*
X81437501Y-100850000D01*
G75*
G02*
X81687500Y-101099999I0J-249999D01*
G01*
X81687500Y-102000001D01*
G75*
G02*
X81437501Y-102250000I-249999J0D01*
G01*
X80912499Y-102250000D01*
G75*
G02*
X80662500Y-102000001I0J249999D01*
G01*
G37*
%TD.AperFunction*%
%TD*%
D13*
%TO.P,U1,1*%
%TO.N,VDD*%
X54500000Y-112000000D03*
%TO.P,U1,2*%
%TO.N,GNDD*%
X54500000Y-112950000D03*
%TO.P,U1,3*%
%TO.N,VDD*%
X54500000Y-113900000D03*
%TO.P,U1,4*%
%TO.N,Net-(U1-Pad4)*%
X56700000Y-113900000D03*
%TO.P,U1,5*%
%TO.N,+3V3*%
X56700000Y-112000000D03*
%TD*%
D14*
%TO.P,U2,1*%
%TO.N,/BCK_IN*%
X60375000Y-103975000D03*
%TO.P,U2,2*%
%TO.N,/WS_IN*%
X60375000Y-104625000D03*
%TO.P,U2,3*%
%TO.N,/DATA_IN*%
X60375000Y-105275000D03*
%TO.P,U2,4*%
%TO.N,+3V3*%
X60375000Y-105925000D03*
%TO.P,U2,5*%
%TO.N,GNDD*%
X60375000Y-106575000D03*
%TO.P,U2,6*%
%TO.N,/SYSCLK_IN*%
X60375000Y-107225000D03*
%TO.P,U2,7*%
%TO.N,/SFOR_1*%
X60375000Y-107875000D03*
%TO.P,U2,8*%
%TO.N,/MUTE*%
X60375000Y-108525000D03*
%TO.P,U2,9*%
%TO.N,/CLKOUT*%
X66175000Y-108525000D03*
%TO.P,U2,10*%
%TO.N,/PLL_IN*%
X66175000Y-107875000D03*
%TO.P,U2,11*%
%TO.N,/SFOR_0*%
X66175000Y-107225000D03*
%TO.P,U2,12*%
%TO.N,Net-(C12-Pad1)*%
X66175000Y-106575000D03*
%TO.P,U2,13*%
%TO.N,Net-(C5-Pad2)*%
X66175000Y-105925000D03*
%TO.P,U2,14*%
%TO.N,Net-(C10-Pad1)*%
X66175000Y-105275000D03*
%TO.P,U2,15*%
%TO.N,GNDA*%
X66175000Y-104625000D03*
%TO.P,U2,16*%
%TO.N,Net-(C11-Pad1)*%
X66175000Y-103975000D03*
%TD*%
D15*
%TO.P,J1,R*%
%TO.N,/OUT_R*%
X89400000Y-117600000D03*
%TO.P,J1,S*%
%TO.N,/OUT_L*%
X91400000Y-110200000D03*
D16*
%TO.P,J1,TN*%
%TO.N,N/C*%
X78000000Y-114650000D03*
D17*
%TO.P,J1,T*%
%TO.N,GNDA*%
X82000000Y-110200000D03*
%TD*%
D18*
%TO.N,GNDD*%
X60300000Y-98675000D03*
X53550000Y-102550000D03*
X68500000Y-110500000D03*
%TO.N,+3V3*%
X58200000Y-101125000D03*
%TO.N,GNDA*%
X65900000Y-97675000D03*
%TD*%
D19*
%TO.N,GNDD*%
X61612500Y-115587500D02*
X61600000Y-115600000D01*
X63825000Y-115587500D02*
X61612500Y-115587500D01*
X61600000Y-115600000D02*
X59275000Y-115600000D01*
X55350002Y-112950000D02*
X54500000Y-112950000D01*
X55555001Y-113154999D02*
X55350002Y-112950000D01*
X55555001Y-114555003D02*
X55555001Y-113154999D01*
X56599998Y-115600000D02*
X55555001Y-114555003D01*
X59275000Y-115600000D02*
X56599998Y-115600000D01*
X52750000Y-112950000D02*
X51800000Y-113900000D01*
X54500000Y-112950000D02*
X52750000Y-112950000D01*
X54700000Y-109875000D02*
X55349980Y-109875000D01*
X55349980Y-109875000D02*
X55524980Y-110050000D01*
X55524980Y-112775022D02*
X55350002Y-112950000D01*
X55524980Y-110050000D02*
X55524980Y-112775022D01*
X54700000Y-104875000D02*
X54700000Y-107375000D01*
X54700000Y-109875000D02*
X54700000Y-107375000D01*
X60830002Y-106575000D02*
X61300000Y-107044998D01*
X60375000Y-106575000D02*
X60830002Y-106575000D01*
X61300000Y-110700000D02*
X63350000Y-112750000D01*
X61300000Y-107044998D02*
X61300000Y-110700000D01*
X64196768Y-112750000D02*
X65680000Y-114233232D01*
X63350000Y-112750000D02*
X64196768Y-112750000D01*
X62075000Y-99850000D02*
X61475000Y-99850000D01*
X61475000Y-99850000D02*
X60300000Y-98675000D01*
X71112500Y-111562500D02*
X71100000Y-111575000D01*
X73350000Y-111562500D02*
X71112500Y-111562500D01*
X65680000Y-121875000D02*
X65730000Y-121925000D01*
X65680000Y-114233232D02*
X65680000Y-121875000D01*
X54700000Y-104875000D02*
X54700000Y-103700000D01*
X54700000Y-103700000D02*
X53550000Y-102550000D01*
X71100000Y-111575000D02*
X70075000Y-111575000D01*
X69000000Y-110500000D02*
X68500000Y-110500000D01*
X70075000Y-111575000D02*
X69000000Y-110500000D01*
D20*
%TO.N,VDD*%
X54474999Y-111974999D02*
X54500000Y-111974999D01*
X54001171Y-111501171D02*
X54474999Y-111974999D01*
X52298829Y-111501171D02*
X54001171Y-111501171D01*
X51800000Y-112000000D02*
X52298829Y-111501171D01*
X54500000Y-115550000D02*
X54500000Y-113925001D01*
X50475000Y-115850000D02*
X54800000Y-115850000D01*
X49775000Y-115150000D02*
X50475000Y-115850000D01*
X49775000Y-112300000D02*
X49775000Y-115150000D01*
X50075000Y-112000000D02*
X49775000Y-112300000D01*
X51800000Y-112000000D02*
X50075000Y-112000000D01*
X54800000Y-115850000D02*
X54500000Y-115550000D01*
X59250000Y-120300000D02*
X54800000Y-115850000D01*
D21*
X60650000Y-121700000D02*
X59250000Y-120300000D01*
X60650000Y-121925000D02*
X60650000Y-121700000D01*
D20*
%TO.N,+3V3*%
X56600000Y-107375000D02*
X56600000Y-109875000D01*
X56700000Y-109975000D02*
X56600000Y-109875000D01*
X56700000Y-112000000D02*
X56700000Y-109975000D01*
D21*
X56675000Y-105925000D02*
X56600000Y-105850000D01*
X60375000Y-105925000D02*
X56675000Y-105925000D01*
D20*
X56600000Y-105850000D02*
X56600000Y-107375000D01*
X56600000Y-104875000D02*
X56600000Y-105850000D01*
D21*
X62062500Y-101900000D02*
X60350000Y-101900000D01*
X60350000Y-101900000D02*
X59600000Y-101150000D01*
X56600000Y-101975000D02*
X56600000Y-104875000D01*
X57425000Y-101150000D02*
X56600000Y-101975000D01*
X58175000Y-101150000D02*
X58200000Y-101125000D01*
X57425000Y-101150000D02*
X58175000Y-101150000D01*
X58225000Y-101150000D02*
X58200000Y-101125000D01*
X59600000Y-101150000D02*
X58225000Y-101150000D01*
%TO.N,GNDA*%
X65225010Y-104265012D02*
X65225010Y-100712510D01*
X65225010Y-100712510D02*
X64187500Y-99675000D01*
X65584998Y-104625000D02*
X65225010Y-104265012D01*
X66175000Y-104625000D02*
X65584998Y-104625000D01*
D19*
X68725000Y-104625000D02*
X68900000Y-104800000D01*
X66175000Y-104625000D02*
X68725000Y-104625000D01*
X71325000Y-104800000D02*
X71350000Y-104825000D01*
X68900000Y-104800000D02*
X71325000Y-104800000D01*
D21*
X64075000Y-97275000D02*
X64075000Y-99562500D01*
X64075000Y-99562500D02*
X64187500Y-99675000D01*
X64075000Y-95350000D02*
X64075000Y-97675000D01*
D19*
X88450000Y-101150000D02*
X88225000Y-100925000D01*
X88450000Y-104775000D02*
X88450000Y-101150000D01*
X83625000Y-100925000D02*
X83000000Y-101550000D01*
X88225000Y-100925000D02*
X83625000Y-100925000D01*
X83000000Y-103925000D02*
X83075000Y-104000000D01*
X83000000Y-101550000D02*
X83000000Y-103925000D01*
X92725001Y-111780001D02*
X92725001Y-106400001D01*
X92680001Y-111825001D02*
X92725001Y-111780001D01*
X83625001Y-111825001D02*
X92680001Y-111825001D01*
X82000000Y-110200000D02*
X83625001Y-111825001D01*
X91100000Y-104775000D02*
X88450000Y-104775000D01*
X92725001Y-106400001D02*
X91100000Y-104775000D01*
X78380000Y-118895000D02*
X80950000Y-116325000D01*
X80950000Y-111250000D02*
X82000000Y-110200000D01*
X80950000Y-116325000D02*
X80950000Y-111250000D01*
X64075000Y-97675000D02*
X65900000Y-97675000D01*
X78380000Y-121875000D02*
X78430000Y-121925000D01*
X78380000Y-118895000D02*
X78380000Y-121875000D01*
%TO.N,Net-(C5-Pad2)*%
X65425000Y-105925000D02*
X66175000Y-105925000D01*
X64187500Y-104687500D02*
X65425000Y-105925000D01*
X64187500Y-101900000D02*
X64187500Y-104687500D01*
X62175000Y-97275000D02*
X63025010Y-98125010D01*
X63025010Y-98125010D02*
X63025010Y-100737510D01*
X63025010Y-100737510D02*
X64187500Y-101900000D01*
D21*
X62175000Y-95350000D02*
X62175000Y-97675000D01*
D19*
%TO.N,/OUT_L*%
X88175000Y-106400000D02*
X88450000Y-106675000D01*
X83062500Y-106400000D02*
X88175000Y-106400000D01*
X88450000Y-106675000D02*
X90275000Y-106675000D01*
X91400000Y-107800000D02*
X91400000Y-110200000D01*
X90275000Y-106675000D02*
X91400000Y-107800000D01*
X83062500Y-106878520D02*
X83062500Y-106400000D01*
X81916010Y-108025010D02*
X83062500Y-106878520D01*
X80485000Y-108025010D02*
X81916010Y-108025010D01*
X75824989Y-112685021D02*
X80485000Y-108025010D01*
X75840000Y-120300000D02*
X75824989Y-120284989D01*
X75824989Y-120284989D02*
X75824989Y-112685021D01*
X75824989Y-121859989D02*
X75890000Y-121925000D01*
X75824989Y-120284989D02*
X75824989Y-121859989D01*
%TO.N,Net-(C12-Pad1)*%
X68775000Y-106575000D02*
X68900000Y-106700000D01*
X66175000Y-106575000D02*
X68775000Y-106575000D01*
X71325000Y-106700000D02*
X71350000Y-106725000D01*
X68900000Y-106700000D02*
X71325000Y-106700000D01*
%TO.N,Net-(C10-Pad2)*%
X80312500Y-105475000D02*
X81237500Y-106400000D01*
X77875000Y-105475000D02*
X80312500Y-105475000D01*
X81250000Y-104537500D02*
X80312500Y-105475000D01*
X81250000Y-104000000D02*
X81250000Y-104537500D01*
%TO.N,Net-(C10-Pad1)*%
X66175000Y-105275000D02*
X67275000Y-105275000D01*
X74349990Y-105650010D02*
X74525000Y-105475000D01*
X67650010Y-105650010D02*
X74349990Y-105650010D01*
X67275000Y-105275000D02*
X67650010Y-105650010D01*
%TO.N,Net-(C11-Pad1)*%
X69500000Y-100650000D02*
X66175000Y-103975000D01*
X74525000Y-100650000D02*
X69500000Y-100650000D01*
%TO.N,Net-(C11-Pad2)*%
X80275000Y-100650000D02*
X81175000Y-101550000D01*
X77875000Y-100650000D02*
X80275000Y-100650000D01*
X81275000Y-99650000D02*
X80275000Y-100650000D01*
X81275000Y-99000000D02*
X81275000Y-99650000D01*
%TO.N,/SYSCLK_IN*%
X59625000Y-107225000D02*
X58725000Y-108125000D01*
X60375000Y-107225000D02*
X59625000Y-107225000D01*
X58725000Y-113225000D02*
X59275000Y-113775000D01*
X66475000Y-94550000D02*
X66475000Y-93675000D01*
X56439998Y-113000000D02*
X58725000Y-113000000D01*
X55874990Y-112434992D02*
X56439998Y-113000000D01*
X55874990Y-99053978D02*
X55874990Y-112434992D01*
X61603978Y-93324990D02*
X55874990Y-99053978D01*
X66124990Y-93324990D02*
X61603978Y-93324990D01*
X66475000Y-93675000D02*
X66124990Y-93324990D01*
X58725000Y-113000000D02*
X58725000Y-113225000D01*
X58725000Y-108125000D02*
X58725000Y-113000000D01*
%TO.N,/SFOR_1*%
X59625000Y-107875000D02*
X59400000Y-108100000D01*
X60375000Y-107875000D02*
X59625000Y-107875000D01*
X59400000Y-108100000D02*
X59400000Y-111125000D01*
X61600000Y-113325000D02*
X61600000Y-113775000D01*
X59400000Y-111125000D02*
X61600000Y-113325000D01*
X67315000Y-92850000D02*
X69015000Y-94550000D01*
X48999990Y-105433990D02*
X61583980Y-92850000D01*
X48999990Y-115471019D02*
X48999990Y-105433990D01*
X54535020Y-116880022D02*
X54280008Y-116625010D01*
X56575000Y-118925000D02*
X54535020Y-116885020D01*
X61600000Y-113775000D02*
X61750000Y-113775000D01*
X62025001Y-123299999D02*
X61800000Y-123525000D01*
X61750000Y-113775000D02*
X62750000Y-114775000D01*
X62750000Y-114775000D02*
X64396768Y-114775000D01*
X62025001Y-120849999D02*
X62025001Y-123299999D01*
X64396768Y-114775000D02*
X64750010Y-115128242D01*
X61583980Y-92850000D02*
X67315000Y-92850000D01*
X64124992Y-116671776D02*
X64124992Y-118750008D01*
X54535020Y-116885020D02*
X54535020Y-116880022D01*
X64750010Y-115128242D02*
X64750010Y-116046758D01*
X64750010Y-116046758D02*
X64124992Y-116671776D01*
X54280008Y-116625010D02*
X50153981Y-116625010D01*
X64124992Y-118750008D02*
X62025001Y-120849999D01*
X50153981Y-116625010D02*
X48999990Y-115471019D01*
X61800000Y-123525000D02*
X59604998Y-123525000D01*
X59604998Y-123525000D02*
X56575000Y-120495002D01*
X56575000Y-120495002D02*
X56575000Y-118925000D01*
%TO.N,/MUTE*%
X60375000Y-108525000D02*
X60375000Y-110400000D01*
X63737500Y-113762500D02*
X63825000Y-113762500D01*
X60375000Y-110400000D02*
X63737500Y-113762500D01*
X48649980Y-115615997D02*
X50058983Y-117025000D01*
X61500000Y-92275000D02*
X48649980Y-105125020D01*
X69280000Y-92275000D02*
X61500000Y-92275000D01*
X48649980Y-105125020D02*
X48649980Y-115615997D01*
X71555000Y-94550000D02*
X69280000Y-92275000D01*
X64712500Y-113762500D02*
X63825000Y-113762500D01*
X65100020Y-114150020D02*
X64712500Y-113762500D01*
X65100020Y-116191736D02*
X65100020Y-114150020D01*
X64475000Y-116816756D02*
X65100020Y-116191736D01*
X64475000Y-123650000D02*
X64475000Y-116816756D01*
X64225000Y-123900000D02*
X64475000Y-123650000D01*
X54075000Y-117025000D02*
X56224990Y-119174990D01*
X50058983Y-117025000D02*
X54075000Y-117025000D01*
X59485010Y-123900000D02*
X64225000Y-123900000D01*
X56224990Y-120639980D02*
X59485010Y-123900000D01*
X56224990Y-119174990D02*
X56224990Y-120639980D01*
%TO.N,/SFOR_0*%
X72525010Y-107750010D02*
X73350000Y-108575000D01*
X67450010Y-107750010D02*
X72525010Y-107750010D01*
X66925000Y-107225000D02*
X67450010Y-107750010D01*
X66175000Y-107225000D02*
X66925000Y-107225000D01*
X73350000Y-108950000D02*
X73350000Y-109737500D01*
X73350000Y-108575000D02*
X73350000Y-108950000D01*
X65425000Y-107225000D02*
X66175000Y-107225000D01*
X63224990Y-101834916D02*
X63224990Y-105024990D01*
X62465064Y-101074990D02*
X63224990Y-101834916D01*
X63224990Y-105024990D02*
X65425000Y-107225000D01*
X61659936Y-101074990D02*
X62124990Y-101074990D01*
X60699990Y-101074990D02*
X62124990Y-101074990D01*
X62124990Y-101074990D02*
X62465064Y-101074990D01*
X74095000Y-94550000D02*
X73019999Y-95625001D01*
X65100010Y-94553978D02*
X64646022Y-94099990D01*
X61603978Y-94099990D02*
X61149990Y-94553978D01*
X64646022Y-94099990D02*
X61603978Y-94099990D01*
X61149990Y-94600010D02*
X58550000Y-97200000D01*
X61149990Y-94553978D02*
X61149990Y-94600010D01*
X58550000Y-97200000D02*
X58550000Y-98925000D01*
X58550000Y-98925000D02*
X60699990Y-101074990D01*
X65100010Y-94553978D02*
X65100010Y-95175010D01*
X65550001Y-95625001D02*
X73019999Y-95625001D01*
X65100010Y-95175010D02*
X65550001Y-95625001D01*
%TO.N,/PLL_IN*%
X67080012Y-107875000D02*
X67705012Y-108500000D01*
X66175000Y-107875000D02*
X67080012Y-107875000D01*
X69850000Y-108500000D02*
X71100000Y-109750000D01*
X67705012Y-108500000D02*
X69850000Y-108500000D01*
X71975000Y-110625000D02*
X71100000Y-109750000D01*
X75200000Y-110625000D02*
X71975000Y-110625000D01*
X81771032Y-107675000D02*
X78150000Y-107675000D01*
X82287510Y-107158522D02*
X81771032Y-107675000D01*
X82262490Y-98603222D02*
X82262490Y-103203958D01*
X78150000Y-107675000D02*
X75200000Y-110625000D01*
X82262490Y-103203958D02*
X82287510Y-103228978D01*
X79284269Y-95625001D02*
X82262490Y-98603222D01*
X82287510Y-103228978D02*
X82287510Y-107158522D01*
X77710001Y-95625001D02*
X79284269Y-95625001D01*
X76635000Y-94550000D02*
X77710001Y-95625001D01*
%TO.N,/CLKOUT*%
X93725010Y-103128242D02*
X93725010Y-116179992D01*
X85146768Y-94550000D02*
X93725010Y-103128242D01*
X79175000Y-94550000D02*
X85146768Y-94550000D01*
X93725010Y-116179992D02*
X88640001Y-121265001D01*
X88640001Y-121265001D02*
X88380001Y-121525001D01*
X88055002Y-121850000D02*
X88640001Y-121265001D01*
X66175000Y-110150000D02*
X74525001Y-118500001D01*
X66175000Y-108525000D02*
X66175000Y-110150000D01*
X88055002Y-121850000D02*
X88055002Y-121869998D01*
X88055002Y-121869998D02*
X86125000Y-123800000D01*
X74525001Y-118500001D02*
X74525001Y-118525001D01*
X74664999Y-118664999D02*
X74664999Y-123514999D01*
X74525001Y-118525001D02*
X74664999Y-118664999D01*
X74950000Y-123800000D02*
X86125000Y-123800000D01*
X74664999Y-123514999D02*
X74950000Y-123800000D01*
%TO.N,/WS_IN*%
X60969988Y-104625000D02*
X62125000Y-105780012D01*
X60375000Y-104625000D02*
X60969988Y-104625000D01*
X62125000Y-105780012D02*
X62125000Y-110535024D01*
X64486724Y-112049980D02*
X70760000Y-118323256D01*
X63639956Y-112049980D02*
X64486724Y-112049980D01*
X62125000Y-110535024D02*
X63639956Y-112049980D01*
X70760000Y-121875000D02*
X70810000Y-121925000D01*
X70760000Y-120160000D02*
X70760000Y-121875000D01*
X70760000Y-118323256D02*
X70760000Y-120160000D01*
X70760000Y-120160000D02*
X70760000Y-120300000D01*
%TO.N,/DATA_IN*%
X61125000Y-105275000D02*
X61700000Y-105850000D01*
X60375000Y-105275000D02*
X61125000Y-105275000D01*
X61700000Y-105850000D02*
X61700000Y-110605012D01*
X64341746Y-112399990D02*
X68220000Y-116278244D01*
X63494978Y-112399990D02*
X64341746Y-112399990D01*
X61700000Y-110605012D02*
X63494978Y-112399990D01*
X68220000Y-120005000D02*
X68220000Y-121875000D01*
X68220000Y-116278244D02*
X68220000Y-120005000D01*
X68220000Y-121875000D02*
X68270000Y-121925000D01*
X68220000Y-120005000D02*
X68220000Y-120300000D01*
%TO.N,/BCK_IN*%
X61125000Y-103975000D02*
X60375000Y-103975000D01*
X62550000Y-105400000D02*
X61125000Y-103975000D01*
X63784934Y-111699970D02*
X62550000Y-110465036D01*
X64699970Y-111699970D02*
X63784934Y-111699970D01*
X73350000Y-120350000D02*
X64699970Y-111699970D01*
X62550000Y-110465036D02*
X62550000Y-105400000D01*
X73350000Y-121925000D02*
X73350000Y-120350000D01*
%TO.N,/OUT_R*%
X88200000Y-99000000D02*
X88225000Y-99025000D01*
X83100000Y-99000000D02*
X88200000Y-99000000D01*
X89400000Y-117600000D02*
X93375000Y-113625000D01*
X93375000Y-104175000D02*
X88225000Y-99025000D01*
X93375000Y-113625000D02*
X93375000Y-104175000D01*
X86700000Y-120300000D02*
X89400000Y-117600000D01*
X85075000Y-121925000D02*
X86700000Y-120300000D01*
X80970000Y-121925000D02*
X85075000Y-121925000D01*
%TD*%
M02*
