M48
; DRILL file {KiCad (5.1.10)-1} date 10/14/21 20:46:29
; FORMAT={-:-/ absolute / inch / decimal}
; #@! TF.CreationDate,2021-10-14T20:46:29-03:00
; #@! TF.GenerationSoftware,Kicad,Pcbnew,(5.1.10)-1
; #@! TF.FileFunction,Plated,1,2,PTH
FMAT,2
INCH
T1C0.0157
T2C0.0394
%
G90
G05
T1
X2.1083Y-4.0374
X2.2913Y-3.9813
X2.374Y-3.8848
X2.5945Y-3.8455
X2.6969Y-4.3504
T2
X2.3878Y-4.8002
X2.4878Y-4.8002
X2.5878Y-4.8002
X2.627Y-3.7146
X2.6878Y-4.8002
X2.727Y-3.7146
X2.7878Y-4.8002
X2.827Y-3.7146
X2.8878Y-4.8002
X2.927Y-3.7146
X2.9878Y-4.8002
X3.027Y-3.7146
X3.0878Y-4.8002
X3.127Y-3.7146
X3.1878Y-4.8002
T0
M30
